inDegrees=yes
name=IMU_IK_results.mot
DataType=double
version=3
OpenSimVersion=4.4-2022-08-12-dcf8e2cb1
endheader
time	TH_y	TH_x	TH_z	TH_x_trans	TH_y_trans	TH_z_trans	SC_y	SC_z	SC_x	AC_y	AC_z	AC_x	GH_y	GH_z	GH_x	EL_x	PS_y
27.42000000000149	-168.1911827411791	-0.5587356247630468	-1.377377739908425	0	0	0	-21.7838553708739	6.302535746439055	0	46.29498984657052	4.898789148368539	-1.180293057969496	-13.56974286050405	-4.92161743575371	16.14980987105795	89.60694262198889	94.6290480547941
27.43000000000149	-168.1646597180877	-0.5527342739338377	-1.376709440641362	0	0	0	-21.7838553708739	6.302535746439055	0	46.29498984657052	4.898789148368539	-1.180293057969496	-13.60548587528057	-4.960272025889548	16.11751144929807	89.57322105032483	94.17584047586317
27.44000000000149	-168.1382220105457	-0.5453152561775579	-1.402032508198852	0	0	0	-21.7838553708739	6.302535746439055	0	46.29498984657052	4.898789148368539	-1.180293057969496	-13.65016505670338	-4.926110728354716	16.09051382065165	89.51905388300183	93.77425949513074
27.45000000000149	-168.1240555191429	-0.547894548306008	-1.405113727603752	0	0	0	-21.7838553708739	6.302535746439055	0	46.29498984657052	4.898789148368539	-1.180293057969496	-13.63728852567647	-5.077308620450506	16.07349177141371	89.50474661790736	93.64777075231495
27.46000000000149	-168.0924173636543	-0.5441463298801447	-1.412006756964522	0	0	0	-21.7838553708739	6.302535746439055	0	46.29498984657052	4.898789148368539	-1.180293057969496	-13.69132875658686	-5.01361517704125	16.03972917319714	89.46911016525219	93.36042711031395
27.47000000000149	-168.0804349077618	-0.5435209734536872	-1.419837146426182	0	0	0	-21.7838553708739	6.302535746439055	0	46.29498984657052	4.898789148368539	-1.180293057969496	-13.69045229385252	-5.075328384945435	16.01869547781546	89.45074053168568	93.29801717078013
27.4800000000015	-168.0620418474075	-0.556675510653649	-1.43006025020903	0	0	0	-21.7838553708739	6.302535746439055	8.620910738379216e-35	46.29498984657052	4.898789148368539	-1.180293057969496	-13.71162811831577	-5.025085044266135	16.1115542772049	89.31801974110539	93.18591061867161
27.4900000000015	-168.0444769207519	-0.5500153499836284	-1.434084531810195	0	0	0	-21.7838553708739	6.302535746439055	0	46.29498984657052	4.898789148368539	-1.180293057969496	-13.72855811258357	-5.02063612580925	16.04496141782701	89.34954188173192	93.17651816061854
27.5000000000015	-168.0112012596375	-0.5624455067980163	-1.422291240229857	0	0	0	-21.7838553708739	6.302535746439055	0	46.29498984657052	4.898789148368539	-1.180293057969496	-13.76633682163311	-4.998977323803216	16.0384657752029	89.33478237454567	93.17166090560842
27.5100000000015	-168.0180124184484	-0.5475381706899549	-1.447023236738759	0	0	0	-21.7838553708739	6.302535746439055	0	46.29498984657052	4.898789148368539	-1.180293057969496	-13.7264474025067	-5.027003005544272	15.94122661569192	89.41573750755927	93.31417752480615
27.5200000000015	-168.000203106168	-0.5514569311611967	-1.440374243886932	0	0	0	-21.7838553708739	6.302535746439055	0	46.29498984657052	4.898789148368539	-1.180293057969496	-13.74084767399263	-4.979427872833289	15.93622902848255	89.40964599971556	93.36247558904074
27.5300000000015	-167.9875051867391	-0.5543589955346967	-1.443348006473166	0	0	0	-21.7838553708739	6.302535746439055	0	46.29498984657052	4.898789148368539	-1.180293057969496	-13.74313008762873	-4.923557090897538	15.93613321252908	89.4082615099405	93.43560842506065
27.54000000000151	-167.9794129011645	-0.5571026407117596	-1.436940192248914	0	0	0	-21.7838553708739	6.302535746439055	0	46.29498984657052	4.898789148368539	-1.180293057969496	-13.70276323234163	-5.021571654739433	15.95059330475053	89.41525561441129	93.68161748737313
27.55000000000151	-167.9717690318485	-0.5591461409635404	-1.434327899673158	0	0	0	-21.7838553708739	6.302535746439055	0	46.29498984657052	4.898789148368539	-1.180293057969496	-13.6997405625507	-4.956727817364766	15.95455167316731	89.42178888097291	93.7479339843803
27.56000000000151	-167.9654317440922	-0.5616174345523779	-1.435572861860333	0	0	0	-21.7838553708739	6.302535746439055	0	46.29498984657052	4.898789148368539	-1.180293057969496	-13.68928181572369	-4.902358036583348	15.96216448808615	89.43045324798572	93.830014011214
27.57000000000151	-167.9624864225154	-0.5617094775120848	-1.419573794963508	0	0	0	-21.7838553708739	6.302535746439055	0	46.29498984657052	4.898789148368539	-1.180293057969496	-13.62739088518648	-5.052063758212086	15.97799171391694	89.45484588009209	94.11328206368874
27.58000000000151	-167.958233645618	-0.5615014539785231	-1.41555256696618	0	0	0	-21.7838553708739	6.302535746439055	0	46.29498984657052	4.898789148368539	-1.180293057969496	-13.61582827131122	-4.993895607575078	15.98764416251724	89.46391296244165	94.16387731306024
27.59000000000151	-167.9558852157394	-0.5626231098332635	-1.4130686767429	0	0	0	-21.7838553708739	6.302535746439055	0	46.29498984657052	4.898789148368539	-1.180293057969496	-13.59838153800591	-4.95298506030209	16.00055461389821	89.47287646961779	94.22095807156522
27.60000000000151	-167.9554913859849	-0.5637877150086101	-1.409241289947847	0	0	0	-21.7838553708739	6.302535746439055	0	46.29498984657052	4.898789148368539	-1.180293057969496	-13.57416305706161	-4.932841337948072	16.01607929050471	89.47981758493363	94.28378582929967
27.61000000000152	-167.9504817359949	-0.5525832221667004	-1.389753333270549	0	0	0	-21.7838553708739	6.302535746439055	0	46.29498984657052	4.898789148368539	-1.180293057969496	-13.52878357045628	-5.019058087872098	15.99609331910477	89.52720332188798	94.43419624739367
27.62000000000152	-167.9520651983877	-0.5719690947437418	-1.38903313326025	0	0	0	-21.7838553708739	6.302535746439055	2.020525954307629e-34	46.29498984657052	4.898789148368539	-1.180293057969496	-13.51923150790229	-4.93082328119485	16.13407886517165	89.41352893324928	94.40020886507963
27.63000000000152	-167.9410632660271	-0.5606555981019562	-1.368421361519918	0	0	0	-21.7838553708739	6.302535746439055	0	46.29498984657052	4.898789148368539	-1.180293057969496	-13.4871128518302	-5.067337560034551	16.06260757850666	89.50998498926018	94.56007185378115
27.64000000000152	-167.9503376957871	-0.5724060071428355	-1.371795407713414	0	0	0	-21.7838553708739	6.302535746439055	0	46.29498984657052	4.898789148368539	-1.180293057969496	-13.46194368711737	-4.97008245301732	16.21083955519169	89.37068504892284	94.49524454577458
27.65000000000152	-167.9394092807622	-0.5585789156791068	-1.353901898323488	0	0	0	-21.7838553708739	6.302535746439055	0	46.29498984657052	4.898789148368539	-1.180293057969496	-13.4450030275452	-5.0872080814238	16.11403306215212	89.46934325201356	94.60515184871694
27.66000000000152	-167.9485568836354	-0.571621829041319	-1.356773743988677	0	0	0	-21.7838553708739	6.302535746439055	1.293136610756882e-34	46.29498984657052	4.898789148368539	-1.180293057969496	-13.41483311940945	-5.000142305087051	16.26099170666208	89.33424503420548	94.53344237239284
27.67000000000153	-167.9331461077967	-0.5570622671255152	-1.356768969161584	0	0	0	-21.7838553708739	6.302535746439055	0	46.29498984657052	4.898789148368539	-1.180293057969496	-13.40697578010387	-5.069727970739488	16.18360831184899	89.39776252382794	94.59654787787821
27.68000000000153	-167.9445602589564	-0.5797700650179862	-1.347092555824321	0	0	0	-21.7838553708739	6.302535746439055	0	46.29498984657052	4.898789148368539	-1.180293057969496	-13.37808565837456	-5.007684369919371	16.32094144247763	89.28783270277466	94.51474693042418
27.69000000000153	-167.9290438230732	-0.5664057717980003	-1.321265416763366	0	0	0	-21.7838553708739	6.302535746439055	0	46.29498984657052	4.898789148368539	-1.180293057969496	-13.36574178190949	-5.110503238640344	16.21918466564732	89.38260826341642	94.56623679315973
27.70000000000153	-167.9400484398146	-0.578383605321976	-1.332663350086688	0	0	0	-21.7838553708739	6.302535746439055	-4.827710013492361e-33	46.29498984657052	4.898789148368539	-1.180293057969496	-13.34270425049084	-5.028907768308776	16.34984602745307	89.23919888834168	94.47732473109761
27.71000000000153	-167.9385636230821	-0.5692243474126789	-1.319863529820096	0	0	0	-21.7838553708739	6.302535746439055	0	46.29498984657052	4.898789148368539	-1.180293057969496	-13.31209858819082	-5.106454895053554	16.24482715433832	89.34594796665765	94.50848572523589
27.72000000000153	-167.9411582333867	-0.5807582891191823	-1.326275402968752	0	0	0	-21.7838553708739	6.302535746439055	0	46.29498984657052	4.898789148368539	-1.180293057969496	-13.29887893587958	-5.041475398224062	16.35283002077841	89.2234079098285	94.42678306959728
27.73000000000154	-167.9414475273825	-0.5675020769018034	-1.333252874972218	0	0	0	-21.7838553708739	6.302535746439055	0	46.29498984657052	4.898789148368539	-1.180293057969496	-13.26673219942686	-5.079775519649917	16.26276169083257	89.29797542366606	94.44455781873235
27.74000000000154	-167.9443125616813	-0.5802881302713871	-1.320160199652542	0	0	0	-21.7838553708739	6.302535746439055	0	46.29498984657052	4.898789148368539	-1.180293057969496	-13.26139155569995	-5.025241061243472	16.37422767272587	89.16986322998525	94.34705740790886
27.75000000000154	-167.9430851165731	-0.57012862137846	-1.317794941506132	0	0	0	-21.7838553708739	6.302535746439055	0	46.29498984657052	4.898789148368539	-1.180293057969496	-13.2415836494345	-5.064140520558587	16.27947334062929	89.25467638435177	94.36201968497271
27.76000000000154	-167.9592310269879	-0.5663215627594202	-1.308789385334133	0	0	0	-21.7838553708739	6.302535746439055	0	46.29498984657052	4.898789148368539	-1.180293057969496	-13.1992627296933	-5.071207109754784	16.24635933659561	89.28168094747325	94.34617997447042
27.77000000000154	-167.9541677748362	-0.5751442183745403	-1.309533495052912	0	0	0	-21.7838553708739	6.302535746439055	-6.034637516865451e-34	46.29498984657052	4.898789148368539	-1.180293057969496	-13.20355501886473	-4.992667376731431	16.366959535294	89.13831853862952	94.26430059164382
27.78000000000154	-167.9412324711297	-0.5490116143071062	-1.320323356164997	0	0	0	-21.7838553708739	6.302535746439055	0	46.29498984657052	4.898789148368539	-1.180293057969496	-13.19690686415893	-5.043251658666948	16.20064323092198	89.27044543695463	94.34400224893216
27.79000000000154	-167.9665305631704	-0.5573624116351391	-1.300969923498833	0	0	0	-21.7838553708739	6.302535746439055	0	46.29498984657052	4.898789148368539	-1.180293057969496	-13.160321249416	-4.970018898113325	16.30039578131251	89.16401612049408	94.27187375382964
27.80000000000155	-167.9752623306503	-0.5541855068246514	-1.296611229005453	0	0	0	-21.7838553708739	6.302535746439055	0	46.29498984657052	4.898789148368539	-1.180293057969496	-13.14954820911769	-4.935581063670701	16.3066418341617	89.14533430037945	94.28169147408866
27.81000000000155	-167.9820586149196	-0.5430255389993591	-1.289701481955333	0	0	0	-21.7838553708739	6.302535746439055	0	46.29498984657052	4.898789148368539	-1.180293057969496	-13.13674793664432	-4.912869135278616	16.28308599677035	89.14546890694436	94.31711192956442
27.82000000000155	-167.9827911192033	-0.5290790589444286	-1.271006961267422	0	0	0	-21.7838553708739	6.302535746439055	-2.155227684594804e-34	46.29498984657052	4.898789148368539	-1.180293057969496	-13.13794168299241	-4.87836841450495	16.26586635423201	89.14182695798247	94.34491730065517
27.83000000000155	-167.988990100027	-0.5034490797150232	-1.274611943953052	0	0	0	-21.7838553708739	6.302535746439055	0	46.29498984657052	4.898789148368539	-1.180293057969496	-13.1362227529069	-4.833778778979706	16.22926013285102	89.13950699330992	94.41271158657572
27.84000000000155	-167.9963472043858	-0.4852339427307026	-1.262148543981072	0	0	0	-21.7838553708739	6.302535746439055	0	46.29498984657052	4.898789148368539	-1.180293057969496	-13.10979210890429	-4.936611602001787	16.1383468433165	89.21475696011368	94.64366456604247
27.85000000000155	-168.0047306632722	-0.4724337009787652	-1.249369252380651	0	0	0	-21.7838553708739	6.302535746439055	0	46.29498984657052	4.898789148368539	-1.180293057969496	-13.12067653131616	-4.867647793228127	16.1203993151493	89.20519564770184	94.70470414764817
